<?xml version="1.0" encoding="utf-8"?>
<!-- Generator: Adobe Illustrator 25.4.1, SVG Export Plug-In . SVG Version: 6.00 Build 0)  -->
<svg version="1.1" id="Livello_1" xmlns="http://www.w3.org/2000/svg" xmlns:xlink="http://www.w3.org/1999/xlink" x="0px" y="0px"
	 viewBox="0 0 137 51" style="enable-background:new 0 0 137 51;" xml:space="preserve">
<style type="text/css">
	.st0{fill:#00AAA8;}
</style>
<g>
	<path class="st0" d="M0.4,0c0.2,0,0.3,0,0.5,0c8.7,0,17.4,0,26.1,0c1.5,0,3,0.3,4.5,0.6c2.1,0.5,4.1,1.2,6,2.1c2.1,1.1,4,2.4,5.8,4
		c2.1,1.9,3.8,4.1,5.1,6.6c1,1.9,1.8,3.9,2.3,6c0.4,1.6,0.6,3.1,0.7,4.7c0.1,2.2,0,4.3-0.4,6.4c-1,5.1-3.4,9.5-7.1,13.2
		c-2.6,2.6-5.7,4.5-9.2,5.8c-2.3,0.8-4.7,1.3-7.1,1.4c-2.6,0-5.2,0-7.7,0c-0.1-0.1,0-0.3,0-0.5c0-6.3,0-12.7,0-19
		c0-1.9,1.3-3.2,3.2-3.2c4.6,0,9.3,0,13.9,0c0.4,0,0.5-0.1,0.5-0.5c0-1.5,0-3.1,0-4.6c0-0.4-0.1-0.5-0.5-0.5c-4.6,0-9.2,0-13.9,0
		c-1,0-1.9,0.1-2.9,0.4c-2.1,0.6-3.8,1.9-4.9,3.8c-0.4,0.6-0.5,1.3-0.8,1.9c-0.1,0-0.1,0.1,0,0.2c0,0.1,0,0.2-0.1,0.3
		c-0.1,0.1-0.2,0.2-0.1,0.4c0,0.2,0,0.4-0.1,0.6c-0.1,0.1-0.1,0.2,0,0.3c0,0.3,0,0.6,0,0.8c0,6.3,0,12.6,0,18.9
		c0,0.2,0.1,0.4-0.1,0.5c-4.3,0-8.7,0-13,0c-0.3,0-0.4-0.1-0.4-0.4c0-10.6,0-21.2,0-31.8c0.2-0.1,0.3-0.1,0.5-0.1
		c11.9,0,23.9,0,35.8,0c0.4,0,0.5-0.1,0.5-0.5c0-1.6,0-3.1,0-4.7c0-0.4-0.1-0.5-0.5-0.5c-11.9,0-23.9,0-35.8,0c-0.2,0-0.4,0-0.5,0
		c0-0.1,0-0.1,0-0.2c0.1-0.1,0.1-0.3,0.1-0.5C0.4,8.1,0.4,4.1,0.4,0z"/>
	<path class="st0" d="M114.8,30C114.8,30,114.8,30,114.8,30c-1.4-0.3-2.5-1-3.2-2.2c-0.6-0.9-0.8-2-0.6-3.1c0.2-1.5,1.1-2.7,2.5-3.4
		c0.8-0.4,1.6-0.5,2.5-0.5c1.1,0.1,2.1,0.5,2.9,1.2c0.1,0.1,0.1,0.1,0,0.3c-0.4,0.4-0.8,0.9-1.3,1.3c-0.1,0.1-0.2,0.1-0.3,0
		c-0.3-0.3-0.6-0.5-1-0.6c-1.3-0.4-2.6,0.2-3,1.5c-0.3,1,0,2,0.7,2.7c1.1,0.9,2.8,0.6,3.4-0.8c0.1-0.1,0-0.2-0.1-0.2
		c-0.6,0-1.2,0-1.8,0c-0.1,0-0.2,0-0.2-0.2c0-0.6,0-1.1,0-1.7c0-0.1,0-0.2,0.2-0.2c1.4,0,2.8,0,4.3,0c0.2,0,0.2,0.1,0.2,0.2
		c0,0.6,0,1.3-0.2,1.9c-0.3,1.4-1.1,2.5-2.4,3.1c-0.4,0.2-0.7,0.3-1.1,0.3c0,0-0.1,0-0.1,0.1C115.7,30,115.3,30,114.8,30z"/>
	<path class="st0" d="M105.1,30c0-0.1-0.1-0.1-0.1-0.1c-1.1-0.2-2-0.7-2.7-1.6c-0.5-0.6-0.8-1.3-1-2c-0.3-1.5,0.1-2.9,1.1-4
		c0.5-0.6,1.1-1,1.8-1.2c0.7-0.2,1.5-0.3,2.2-0.2c0.8,0.1,1.5,0.5,2.1,1c0.8,0.6,1.3,1.5,1.5,2.5c0.3,1.3,0.1,2.5-0.7,3.6
		c-0.7,0.9-1.5,1.6-2.7,1.8c-0.1,0-0.2,0.1-0.3,0.1c0,0-0.1,0-0.1,0.1C106,30,105.5,30,105.1,30z M105.8,23.1
		c-0.8,0-1.4,0.3-1.9,0.9c-0.7,1-0.6,2.4,0.4,3.2c0.7,0.6,1.5,0.7,2.3,0.4c1.2-0.5,1.7-1.8,1.3-3C107.6,23.8,106.7,23.1,105.8,23.1z
		"/>
	<path class="st0" d="M0.3,18.4C0.3,18.4,0.3,18.5,0.3,18.4c0.1,10.7,0.1,21.3,0.1,31.8c0,0.4,0.1,0.4,0.4,0.4c4.3,0,8.7,0,13,0
		c0,0,0.1,0.1,0.1,0.1c-4.6,0-9.1,0-13.7,0C0.3,40,0.3,29.2,0.3,18.4z"/>
	<path class="st0" d="M0.4,0c0,4,0,8,0,12.1c0,0.2,0.1,0.3-0.1,0.5C0.3,8.4,0.3,4.2,0.4,0C0.3,0,0.3,0,0.4,0z"/>
	<path class="st0" d="M19.5,50.8C19.5,50.8,19.6,50.7,19.5,50.8c2.6-0.1,5.2-0.1,7.8-0.1c0,0,0,0,0,0.1
		C24.7,50.8,22.1,50.8,19.5,50.8z"/>
	<path class="st0" d="M91,27c0,0.9,0,1.8,0,2.8c0,0.2,0,0.2-0.2,0.2c-0.6,0-1.2,0-1.8,0c-0.1,0-0.2,0-0.2-0.2c0-1,0-1.9,0-2.9
		c0-0.2,0-0.2-0.2-0.2c-0.5,0-1.1,0-1.6,0c-0.1,0-0.2,0-0.2-0.2c0-0.6,0-1.2,0-1.8c0-0.1,0-0.2,0.2-0.2c0.5,0,1.1,0,1.6,0
		c0.1,0,0.2,0,0.2-0.2c0-0.5-0.1-0.9-0.6-1.2c-0.6-0.4-1.5-0.1-1.7,0.8c-0.1,0.3-0.1,0.6-0.1,0.9c0,1.6,0,3.2,0,4.7
		c0,0.2,0,0.2-0.2,0.2c-0.6,0-1.2,0-1.8,0c-0.1,0-0.2,0-0.2-0.2c0-1.8,0-3.5,0-5.3c0-1,0.3-1.9,1-2.6c0.6-0.6,1.3-0.8,2-0.9
		c0.7,0,1.3,0,2,0.4c0.8,0.4,1.2,1.1,1.5,1.9c0.1,0.5,0.2,0.9,0.2,1.4C91,25.5,91,26.2,91,27z"/>
	<path class="st0" d="M58.8,25.5c0-1.4,0-2.8,0-4.2c0-0.1,0-0.2,0.2-0.2c0.8,0,1.6,0,2.4,0c1.2,0,2.2,0.3,3.1,1.1
		c0.9,0.9,1.5,1.9,1.5,3.2c0,1.2-0.4,2.2-1.2,3.1c-0.6,0.6-1.2,1-2,1.2c-0.4,0.1-0.8,0.1-1.2,0.2c-0.1,0-0.1,0-0.1-0.1
		c0-0.6,0-1.3,0-1.9c0-0.1,0.1-0.1,0.2-0.1c0.4,0,0.8-0.1,1.1-0.4c0.6-0.4,1-1,1-1.7c0-0.6-0.1-1.2-0.6-1.7c-0.4-0.5-1-0.7-1.6-0.7
		c-0.1,0-0.2,0-0.3,0c-0.1,0-0.2,0.1-0.2,0.2c0,1.5,0,3,0,4.5c0,0.6,0,1.2,0,1.8c0,0.1,0,0.2-0.2,0.2c-0.6,0-1.2,0-1.8,0
		c-0.2,0-0.2,0-0.2-0.2C58.8,28.3,58.8,26.9,58.8,25.5C58.8,25.5,58.8,25.5,58.8,25.5z"/>
	<path class="st0" d="M132.1,27.1c0,0.9,0,1.8,0,2.7c0,0.2,0,0.2-0.2,0.2c-0.6,0-1.2,0-1.8,0c-0.1,0-0.2,0-0.2-0.2
		c0-1.8,0-3.6,0-5.4c0-1.1,0.4-2,1.3-2.7c0.5-0.4,1.1-0.6,1.8-0.6c0.5,0,1.1,0,1.6,0.2c0.9,0.4,1.5,1,1.8,1.9c0.2,0.5,0.3,1,0.3,1.5
		c0,1.7,0,3.4,0,5.1c0,0.2,0,0.2-0.2,0.2c-0.6,0-1.2,0-1.8,0c-0.2,0-0.2,0-0.2-0.2c0-1,0-1.9,0-2.9c0-0.1,0-0.2-0.2-0.2
		c-0.5,0-1.1,0-1.6,0c-0.1,0-0.2,0-0.2-0.2c0-0.6,0-1.1,0-1.7c0-0.1,0-0.2,0.2-0.2c0.5,0,1.1,0,1.6,0c0.2,0,0.2-0.1,0.2-0.2
		c0-0.5-0.2-1-0.7-1.2c-0.6-0.3-1.4,0-1.6,0.8c0,0.2-0.1,0.4-0.1,0.6C132.1,25.5,132.1,26.3,132.1,27.1z"/>
	<path class="st0" d="M70.6,26.4c-0.5,0-1,0-1.5,0c-0.1,0-0.2,0-0.1,0.2c0.2,0.5,0.7,0.9,1.2,1c0.6,0.2,1.2,0.2,1.8,0.2
		c0.2,0,0.2,0,0.2,0.2c0,0.5,0,1.1,0,1.6c0,0.1,0,0.2-0.2,0.2c-0.8,0-1.6-0.1-2.4-0.3c-1.2-0.3-2.2-1.1-2.7-2.2
		c-0.7-1.4-0.6-2.8,0.2-4.2c0.6-1,1.5-1.6,2.6-1.9c0.8-0.2,1.5-0.2,2.3-0.2c0.1,0,0.2,0,0.2,0.2c0,0.6,0,1.1,0,1.7
		c0,0.1-0.1,0.1-0.2,0.1c-0.9,0-1.7,0-2.5,0.6c-0.2,0.2-0.4,0.4-0.5,0.6c-0.1,0.1-0.1,0.2,0.1,0.2c1,0,1.9,0,2.9,0
		c0.2,0,0.2,0,0.2,0.2c0,0.5,0,1.1,0,1.6c0,0.1,0,0.2-0.2,0.2C71.6,26.4,71.1,26.4,70.6,26.4z"/>
	<path class="st0" d="M95.7,26.7c0-1,0-2,0-3.1c0-0.7,0.3-1.4,0.8-1.9c0.4-0.3,0.9-0.5,1.4-0.6c0.8-0.1,1.5,0,2.3-0.1
		c0.1,0,0.1,0,0.1,0.1c0,0.6,0,1.2,0,1.8c0,0.1-0.1,0.1-0.2,0.1c-0.5,0-0.9,0-1.4,0c-0.2,0-0.3,0-0.5,0.1c-0.3,0.1-0.4,0.4-0.5,0.8
		c0,0.1,0,0.3,0,0.4c0,0.1,0,0.2,0.2,0.2c0.7,0,1.4,0,2.1,0c0.2,0,0.2,0.1,0.2,0.2c0,0.6,0,1.1,0,1.7c0,0.1,0,0.2-0.2,0.2
		c-0.7,0-1.4,0-2,0c-0.2,0-0.2,0-0.2,0.2c0,0.9,0,1.9,0,2.8c0,0.2,0,0.2-0.2,0.2c-0.6,0-1.2,0-1.8,0c-0.2,0-0.2,0-0.2-0.2
		C95.7,28.7,95.7,27.7,95.7,26.7C95.7,26.7,95.7,26.7,95.7,26.7z"/>
	<path class="st0" d="M73.4,24.3c0-1,0-1.9,0-2.9c0-0.3,0-0.2,0.2-0.2c0.6,0,1.2,0,1.8,0c0.1,0,0.2,0.1,0.2,0.2c0,1.8,0,3.7,0,5.5
		c0,0.1,0,0.2,0,0.3c0.1,0.5,0.3,0.7,0.8,0.7c0.5,0,1.1,0,1.6,0c0.1,0,0.2,0,0.2,0.2c0,0.6,0,1.2,0,1.7c0,0.1,0,0.2-0.2,0.2
		c-0.6,0-1.2,0-1.7,0c-0.7,0-1.4-0.1-1.9-0.5c-0.5-0.3-0.7-0.8-0.9-1.3c-0.1-0.4-0.1-0.9-0.1-1.3C73.4,25.9,73.4,25.1,73.4,24.3z"/>
	<path class="st0" d="M78.8,24.3c0-1,0-2,0-3c0-0.2,0.1-0.2,0.2-0.2c0.6,0,1.2,0,1.9,0c0.1,0,0.2,0.1,0.2,0.2c0,1,0,2,0,3
		c0,0.9,0,1.8,0,2.7c0,0.5,0.3,0.8,0.8,0.8c0.5,0,1.1,0,1.6,0c0.2,0,0.2,0,0.2,0.2c0,0.6,0,1.1,0,1.7c0,0.2,0,0.2-0.2,0.2
		c-0.6,0-1.1,0-1.7,0c-0.7,0-1.4-0.1-2-0.6C79.3,29,79.1,28.5,79,28c-0.1-0.4-0.1-0.9-0.1-1.3C78.8,25.8,78.8,25.1,78.8,24.3
		C78.8,24.3,78.8,24.3,78.8,24.3z"/>
	<path class="st0" d="M123.1,24.2c0,1,0,1.9,0,2.9c0,0.5,0.3,0.8,0.8,0.8c0.5,0,1.1,0,1.6,0c0.1,0,0.2,0,0.2,0.2c0,0.6,0,1.2,0,1.7
		c0,0.1,0,0.2-0.2,0.2c-0.4,0-0.8,0-1.2,0c-0.5,0-1,0-1.5-0.1c-0.9-0.2-1.5-0.7-1.8-1.6c-0.1-0.4-0.2-0.8-0.2-1.3c0-1.9,0-3.7,0-5.6
		c0-0.1,0-0.2,0.2-0.2c0.6,0,1.2,0,1.8,0c0.2,0,0.2,0,0.2,0.2C123.1,22.2,123.1,23.2,123.1,24.2C123.1,24.2,123.1,24.2,123.1,24.2z"
		/>
	<path class="st0" d="M126.5,25.5c0-1.4,0-2.8,0-4.2c0-0.2,0-0.2,0.2-0.2c0.6,0,1.2,0,1.8,0c0.2,0,0.2,0.1,0.2,0.2
		c0,2.6,0,5.3,0,7.9c0,0.2,0,0.3,0,0.5c0,0.1,0,0.1-0.1,0.1c-0.6,0-1.3,0-1.9,0c-0.2,0-0.2-0.1-0.2-0.2c0-1.1,0-2.2,0-3.3
		C126.5,26.1,126.5,25.8,126.5,25.5z"/>
	<path class="st0" d="M14.1,29.1c0.1,0.2,0,0.3-0.1,0.4C13.9,29.4,14,29.3,14.1,29.1z"/>
	<path class="st0" d="M13.9,30.1c0.1,0.1,0.1,0.2,0,0.3C13.8,30.3,13.8,30.2,13.9,30.1z"/>
	<path class="st0" d="M14.2,28.6c0,0.1,0,0.1,0,0.2C14.1,28.7,14.1,28.7,14.2,28.6z"/>
</g>
</svg>
